<svg xmlns="http://www.w3.org/2000/svg" viewBox="0 0 64 64">
<ellipse cx="32" cy="55" rx="9" ry="5" fill="#F7A823"/><ellipse cx="32" cy="56" rx="4" ry="3" fill="#fff" opacity=".0"/>
<path d="M32 6c-9 0-15 6.5-15 17 0 4-3 7-3 13 0 7 4 12 5 13 1 1 3 1 4-1 2 2 16 2 18 0 1 2 3 2 4 1 1-1 5-6 5-13 0-6-3-9-3-13 0-10.5-6-17-15-17z" fill="#222"/>
<ellipse cx="32" cy="42" rx="10" ry="13" fill="#fff"/>
<ellipse cx="26" cy="24" rx="4.2" ry="5.2" fill="#fff"/><ellipse cx="38" cy="24" rx="4.2" ry="5.2" fill="#fff"/>
<ellipse cx="27" cy="25" rx="1.8" ry="2.4" fill="#222"/><ellipse cx="37" cy="25" rx="1.8" ry="2.4" fill="#222"/>
<path d="M29 31h6l-3 4z" fill="#F7A823"/>
<path d="M18 44c4 3 24 3 28 0l-1 5c-5 3-21 3-26 0z" fill="#E23B33"/>
<ellipse cx="25" cy="58" rx="5" ry="2.6" fill="#F7A823"/><ellipse cx="39" cy="58" rx="5" ry="2.6" fill="#F7A823"/>
</svg>